<svg width="1213" height="139" viewBox="0 0 1213 139" fill="none" xmlns="http://www.w3.org/2000/svg">
<path fill-rule="evenodd" clip-rule="evenodd" d="M685.939 138.919C691.988 138.919 697.409 134.744 698.53 128.491C699.696 121.989 700.306 115.279 700.306 108.42C700.306 48.971 654.492 0.777832 597.979 0.777832C541.465 0.777832 495.652 48.971 495.652 108.42C495.652 115.279 496.262 121.989 497.428 128.491C498.549 134.744 503.97 138.919 510.018 138.919H685.939Z" fill="#FC7A1D"/>
<path d="M0.449219 132.097V36.5922H86.29V62.8561H31.9431V75.8175H83.9024V98.5567H31.9431V132.097H0.449219Z" fill="black"/>
<path d="M95.6131 132.097V36.5922H127.107V132.097H95.6131Z" fill="black"/>
<path d="M235.673 132.097H204.747L191.786 107.425H167.91V132.097H136.416V36.5922H191.104C217.595 36.5922 232.489 47.9618 232.489 73.0887C232.489 85.9364 226.691 95.0322 218.618 100.717L235.673 132.097ZM167.91 62.7424V83.8899H188.944C196.902 83.8899 200.995 80.0242 200.995 73.3161C200.995 66.608 196.902 62.7424 188.944 62.7424H167.91Z" fill="black"/>
<path d="M285.319 135.281C252.347 135.167 236.771 124.934 237.567 100.148H265.877C266.218 106.629 271.676 110.609 285.319 110.722C297.371 110.836 302.942 107.425 302.942 102.991C302.942 99.9211 301.237 96.7376 291.914 95.3732L279.634 93.4404C261.557 90.4843 239.841 88.3241 239.841 63.8793C239.841 45.0057 255.19 33.4087 285.547 33.4087C312.947 33.4087 332.048 41.0263 331.48 68.3135H303.397C302.26 61.9465 296.916 57.9671 284.864 57.9671C274.404 57.9671 270.084 61.1506 270.084 65.4711C270.084 68.1998 271.789 71.497 279.066 72.634L289.185 74.3394C308.172 77.5229 334.209 78.0914 334.209 104.242C334.209 125.048 318.064 135.394 285.319 135.281Z" fill="black"/>
<path d="M437.667 36.5922V62.8561H403.331V132.097H371.837V62.8561H337.5V36.5922H437.667Z" fill="black"/>
<path d="M758.862 132.097V36.5922H790.356V105.833H841.292V132.097H758.862Z" fill="black"/>
<path d="M850.562 132.097V36.5922H882.055V132.097H850.562Z" fill="black"/>
<path d="M994.146 79.342V132.097H977.319L976.864 119.477C970.27 128.573 958.332 135.281 941.505 135.281C912.171 135.281 889.659 114.929 889.659 84.3447C889.659 53.7604 911.034 33.4087 944.233 33.4087C966.859 33.4087 989.939 44.3235 993.691 70.0189H962.425C960.492 65.2437 954.238 60.5821 944.915 60.5821C930.817 60.5821 920.925 69.9052 920.925 84.3447C920.925 98.7841 931.044 108.107 944.006 108.107C948.667 108.107 960.605 106.857 963.789 95.7143H942.755V79.342H994.146Z" fill="black"/>
<path d="M1072.54 36.5922H1104.04V132.097H1072.54V97.5335H1035.48V132.097H1003.98V36.5922H1035.48V71.1559H1072.54V36.5922Z" fill="black"/>
<path d="M1213 36.5922V62.8561H1178.66V132.097H1147.17V62.8561H1112.83V36.5922H1213Z" fill="black"/>
</svg>
