<svg width="24" height="24" viewBox="0 0 24 24" fill="none" xmlns="http://www.w3.org/2000/svg">
<g clip-path="url(#clip0_55_237)">
<path d="M12.84 1.86857L15.5657 7.37143C15.6277 7.5111 15.7252 7.63209 15.8486 7.72232C15.9719 7.81256 16.1167 7.8689 16.2686 7.88572L22.2857 8.77715C22.4599 8.79954 22.6242 8.87104 22.7593 8.9833C22.8944 9.09556 22.9948 9.24394 23.0487 9.41111C23.1026 9.57829 23.1079 9.75735 23.0639 9.9274C23.0198 10.0974 22.9283 10.2515 22.8 10.3714L18.4629 14.6743C18.3522 14.7777 18.2691 14.9072 18.2212 15.0509C18.1733 15.1946 18.1621 15.348 18.1886 15.4971L19.2343 21.5486C19.2646 21.7225 19.2454 21.9013 19.1791 22.0649C19.1127 22.2284 19.0017 22.3701 18.8588 22.4737C18.7159 22.5773 18.5468 22.6387 18.3708 22.6509C18.1947 22.6631 18.0187 22.6257 17.8629 22.5429L12.4457 19.68C12.307 19.6119 12.1545 19.5765 12 19.5765C11.8455 19.5765 11.693 19.6119 11.5543 19.68L6.13715 22.5429C5.9813 22.6257 5.80532 22.6631 5.62925 22.6509C5.45317 22.6387 5.28407 22.5773 5.14117 22.4737C4.99828 22.3701 4.88733 22.2284 4.82095 22.0649C4.75458 21.9013 4.73544 21.7225 4.76572 21.5486L5.81143 15.4286C5.83794 15.2794 5.82673 15.126 5.77882 14.9823C5.73092 14.8386 5.64784 14.7091 5.53715 14.6057L1.14858 10.3714C1.01874 10.2482 0.927433 10.0899 0.885714 9.9158C0.843996 9.7417 0.853656 9.55924 0.913525 9.39052C0.973394 9.22179 1.0809 9.07405 1.22303 8.96519C1.36515 8.85632 1.5358 8.791 1.71429 8.77715L7.73143 7.88572C7.88332 7.8689 8.02814 7.81256 8.15146 7.72232C8.27478 7.63209 8.3723 7.5111 8.43429 7.37143L11.16 1.86857C11.2342 1.7083 11.3528 1.57261 11.5016 1.47752C11.6504 1.38242 11.8234 1.33189 12 1.33189C12.1766 1.33189 12.3496 1.38242 12.4984 1.47752C12.6473 1.57261 12.7658 1.7083 12.84 1.86857Z" stroke="black" stroke-width="2" stroke-linecap="round" stroke-linejoin="round"/>
</g>
<defs>
<clipPath id="clip0_55_237">
<rect width="24" height="24" fill="white"/>
</clipPath>
</defs>
</svg>
