<svg width="131" height="17" viewBox="0 0 131 17" fill="none" xmlns="http://www.w3.org/2000/svg">
<path fill-rule="evenodd" clip-rule="evenodd" d="M61.96 4.58315C61.96 6.71922 61.6647 13.4326 61.6647 13.4326C61.6647 14.7142 62.1814 15.3245 63.6575 15.3245V15.8738H57.9007V15.3245C59.3768 15.3245 60.1887 14.7753 60.1887 13.4326L60.7053 2.50812C60.2625 1.65369 59.8196 1.34854 58.7126 1.2875V0.73823H63.1408L67.8643 10.9303L72.6616 0.73823H76.647V1.22647C75.54 1.22647 74.8757 1.65369 74.8757 2.69121L75.3924 13.2495C75.3924 14.8363 75.7614 15.2635 77.3113 15.2635V15.8128H70.5951V15.2635C71.9235 15.2635 72.514 14.8973 72.4402 13.2495C72.4402 13.2495 72.145 5.86479 72.0712 4.52212L68.8238 11.8458C68.3809 12.7612 67.9381 13.8598 67.6429 15.0194L66.6096 15.0804C66.3144 14.287 65.6502 12.8223 65.6502 12.8223C65.6502 12.8223 62.9194 6.65819 61.96 4.58315Z" fill="black"/>
<path fill-rule="evenodd" clip-rule="evenodd" d="M56.4984 15.9349C56.1294 15.8738 55.8342 15.8738 55.4652 15.8738C54.8009 15.8738 53.5463 16.179 52.0702 16.179C46.3873 16.179 42.2542 13.3716 42.2542 8.18398C42.2542 3.78979 46.1658 0.433107 52.144 0.433107C53.5463 0.433107 55.0962 0.677229 56.4246 1.10444C56.7199 0.86032 56.7937 0.738259 57.0151 0.555168H57.5317C57.4579 1.34856 57.0889 3.91185 57.0889 3.91185H56.5723C56.2032 2.38608 55.2438 1.40959 52.2178 1.40959C48.6014 1.40959 45.2802 3.78979 45.2802 8.18398C45.2802 13.1275 48.6752 15.3246 52.4392 15.3246C54.8748 15.3246 56.3508 14.165 57.3103 12.7613L57.9007 13.0054L56.4984 15.9349Z" fill="black"/>
<path fill-rule="evenodd" clip-rule="evenodd" d="M40.0401 3.54565H39.4496C39.3758 2.20298 38.8592 1.77577 37.5307 1.77577H35.0214V13.0664C35.0214 14.9584 35.4642 15.3245 36.9403 15.3245V15.8738H30.4455V15.3245C31.9216 15.3245 32.3644 14.9584 32.3644 13.0054V1.77577H29.8551C28.2314 1.77577 27.9362 2.14195 27.4934 3.54565H26.9029L27.3457 0.311036L27.7886 0.372066C27.9362 0.738249 28.3052 0.738249 29.3385 0.738249H37.7521C39.302 0.738249 39.6711 0.738249 40.0401 0.311036H40.5567L40.0401 3.54565Z" fill="black"/>
<path fill-rule="evenodd" clip-rule="evenodd" d="M21.6628 16.24C20.482 16.24 19.5225 16.118 18.7845 15.8738C18.1202 15.7518 17.6036 15.5076 17.3084 15.3856C16.9393 15.6907 16.7179 16.0569 16.7179 16.0569L16.2013 15.9349L16.5703 12.4561L17.1608 12.5172C17.5298 14.1039 18.7845 15.2635 21.5152 15.2635C23.5817 15.2635 24.984 13.7988 24.984 12.273C24.984 10.9914 24.3936 10.3201 22.2533 9.03841C21.589 8.67223 20.9248 8.36707 20.4082 8.06192C18.4892 7.08543 17.3084 5.92585 17.3084 4.03391C17.3084 1.89784 19.4487 0.433107 22.3271 0.433107C23.9508 0.433107 25.0578 0.86032 25.353 0.982382L25.9435 0.433107L26.3863 0.494137L25.9435 3.60669L25.4268 3.48463C25.4268 2.0199 24.3936 1.4096 22.6223 1.4096C20.9986 1.4096 19.7439 2.14196 19.7439 3.48463C19.7439 4.70524 20.851 5.49864 22.1795 6.23101C22.8437 6.59719 23.3603 6.90234 23.9508 7.14646C26.9767 8.91635 27.7148 10.0759 27.7148 11.8458C27.7148 14.3481 25.353 16.24 21.6628 16.24Z" fill="black"/>
<path fill-rule="evenodd" clip-rule="evenodd" d="M11.6992 3.54565H11.035C11.035 2.26401 10.3708 1.77576 8.96848 1.77576H5.05685V7.4516H7.5662C8.89467 7.4516 9.11609 6.90233 9.3375 5.92584H9.92794V9.95385H9.3375C9.18989 8.8553 8.89467 8.42809 7.49239 8.42809H5.05685V13.2495C5.05685 15.0194 5.57348 15.2635 6.97576 15.2635V15.8128H0.333374V15.2635C1.95707 15.2635 2.25229 14.8973 2.25229 13.2495V2.69122C2.25229 1.71473 1.73566 1.22649 0.333374 1.22649V0.738244H9.41131C10.9612 0.738244 11.3302 0.677214 11.5516 0.25H12.1421L11.6992 3.54565Z" fill="black"/>
<path fill-rule="evenodd" clip-rule="evenodd" d="M105.504 4.40006V13.0664C105.504 14.9583 106.021 15.3245 107.423 15.3245V15.8738H97.1646V15.3245C97.9764 15.3245 98.6407 15.0804 98.6407 14.6532C98.6407 14.348 98.5669 13.8598 98.3455 13.3715L97.5336 11.2965H91.8507C91.7769 11.6017 90.7436 13.9819 90.7436 14.5922C90.7436 15.1414 91.5555 15.3245 92.0721 15.3245V15.8738H87.2748V15.3245C88.1605 15.3245 88.8247 15.2635 89.4151 13.7377L93.8434 2.01987C93.5482 1.53163 93.253 1.34854 92.6625 1.2875V0.73823H96.5742L101.298 13.0054C101.74 14.287 102.183 14.9583 102.848 15.2635C103.881 14.9583 104.176 14.7142 104.176 13.0054V2.69121C103.364 1.83678 103.29 1.22647 101.814 1.22647V0.73823H106.243L113.549 10.9914V3.17945C113.549 1.59266 113.106 1.22647 111.63 1.22647V0.73823H121.372V1.22647C120.782 1.22647 120.265 1.4706 120.265 1.95884C120.265 2.32502 120.413 2.69121 120.634 3.11842L123.439 8.06189L126.17 3.24048C126.613 2.56915 126.686 2.26399 126.686 1.89781C126.686 1.4706 126.317 1.22647 125.579 1.22647V0.73823H130.155V1.22647C129.048 1.22647 128.31 2.0809 127.793 3.11842L124.251 9.16044V13.1274C124.251 14.8363 124.767 15.2635 126.17 15.2635V15.8128H119.527V15.2635C120.93 15.2635 121.446 14.8363 121.446 13.1274V9.77075L117.608 3.05739C116.944 1.77575 116.649 1.4706 116.206 1.2875C115.32 1.59266 115.099 2.0809 115.099 3.24048V14.287C115.099 14.287 115.173 15.1414 115.247 16.179L114.14 16.24L105.504 4.40006ZM94.6553 3.72873L92.2197 10.259H97.2384L94.6553 3.72873Z" fill="black"/>
<path fill-rule="evenodd" clip-rule="evenodd" d="M83.8799 10.259C83.8799 10.259 83.068 10.259 82.5514 10.259V13.3715C82.5514 14.9583 83.068 15.3245 84.5441 15.3245V15.8738H77.8279V15.3245C79.2302 15.3245 79.7468 14.8973 79.7468 13.3105V3.11842C79.7468 1.53163 79.2302 1.22647 77.8279 1.22647V0.73823H82.8466C87.7177 0.73823 90.5961 1.95884 90.5961 5.25449C90.6699 8.73323 87.2011 10.259 83.8799 10.259ZM82.9942 1.77575H82.5514V9.16044H83.3632C86.2416 9.16044 87.7177 8.06189 87.7177 5.37655C87.7177 2.63018 86.3892 1.77575 82.9942 1.77575Z" fill="black"/>
<path fill-rule="evenodd" clip-rule="evenodd" d="M53.5463 12.9443C50.2251 12.9443 48.011 10.9914 48.011 8.18396C48.011 5.49862 50.3727 3.42358 53.5463 3.42358C56.6461 3.42358 59.0078 5.43759 59.0078 8.18396C59.0078 10.8693 56.5723 12.9443 53.5463 12.9443ZM53.5463 4.33904C51.2584 4.33904 50.5203 6.16995 50.5203 8.24499C50.5203 10.198 51.1846 12.1509 53.5463 12.1509C55.8342 12.1509 56.4985 10.198 56.4985 8.18396C56.4985 6.23098 55.6128 4.33904 53.5463 4.33904Z" fill="black"/>
<path fill-rule="evenodd" clip-rule="evenodd" d="M15.3157 12.0899V11.6017C16.2013 11.6017 16.3489 11.3576 16.3489 11.1745C16.3489 10.8693 16.2751 10.6862 16.2013 10.4421C16.2013 10.4421 16.0537 9.89284 15.8323 9.46562H12.4373L12.0683 10.3811C11.9945 10.6252 11.9207 10.8083 11.9207 11.1134C11.9207 11.4186 12.2897 11.6017 12.8063 11.6017V12.0899H9.41132V11.6017C10.297 11.6017 10.5922 11.3576 10.9612 10.6252L13.5444 4.15597C13.4706 3.85082 13.1753 3.66772 12.6587 3.66772V3.11845H15.4633C17.7512 8.6112 18.3416 10.0149 18.3416 10.0149C18.7845 11.2355 19.2273 11.6017 19.8915 11.6017V12.0899H15.3157ZM14.061 5.13246L12.7325 8.67223H15.4633L14.061 5.13246Z" fill="black"/>
</svg>
