<svg width="73" height="18" viewBox="0 0 73 18" fill="none" xmlns="http://www.w3.org/2000/svg">
<path fill-rule="evenodd" clip-rule="evenodd" d="M44.526 5.38294C43.3793 5.38294 42.4716 5.61111 41.5638 6.1131C41.5638 3.60317 41.5638 1.27579 41.6593 0.5L36.0694 1.45833V1.91468L36.6428 2.00595C37.4072 2.14286 37.6461 2.55357 37.7894 3.5119C37.9327 5.42857 37.885 15.5139 37.7894 17.2024C39.2705 17.5218 40.8471 17.75 42.4238 17.75C46.8193 17.75 49.447 15.1488 49.447 11.0417C49.4948 7.75595 47.3448 5.38294 44.526 5.38294ZM42.6149 16.8373C42.2804 16.8373 41.8505 16.8373 41.6116 16.746C41.516 15.6508 41.4682 10.996 41.516 6.88889C41.9938 6.75198 42.3282 6.66072 42.7582 6.66072C44.5737 6.66072 45.5771 8.71429 45.5771 11.2242C45.5771 14.4187 44.3349 16.8373 42.6149 16.8373Z" fill="black"/>
<path fill-rule="evenodd" clip-rule="evenodd" d="M15.2387 0.819365H0.666656V1.54952L1.47887 1.64079C2.57774 1.7777 2.95995 2.41659 3.15106 3.92254C3.38995 6.75191 3.29439 11.9087 3.15106 14.3729C3.00773 15.8789 2.57774 16.5634 1.47887 16.6547L0.666656 16.7916V17.4305H10.031V16.7916L9.02764 16.6547C7.92877 16.5634 7.54655 15.8789 7.35544 14.3729C7.25989 13.3233 7.21211 11.6805 7.21211 9.6269L9.21875 9.71817C10.4609 9.71817 11.0343 10.6765 11.2732 11.9999H12.0376V6.34119H11.2732C11.0343 7.6646 10.4609 8.62294 9.21875 8.62294L7.21211 8.71421C7.21211 6.02175 7.30766 3.51183 7.35544 2.00587H10.2698C12.5154 2.00587 13.662 3.32929 14.4742 5.7023L15.2864 5.47413L15.2387 0.819365Z" fill="black"/>
<path fill-rule="evenodd" clip-rule="evenodd" d="M19.9208 5.24606C24.0774 5.24606 26.1318 7.93852 26.1318 11.498C26.1318 14.875 23.8385 17.75 19.6819 17.75C15.5253 17.75 13.4709 15.0576 13.4709 11.498C13.4709 8.07543 15.812 5.24606 19.9208 5.24606ZM19.6819 6.02185C17.8664 6.02185 17.3886 8.39487 17.3886 11.4524C17.3886 14.4643 18.2008 16.883 19.873 16.883C21.7841 16.883 22.2619 14.5099 22.2619 11.4524C22.2619 8.48614 21.4497 6.02185 19.6819 6.02185Z" fill="black"/>
<path fill-rule="evenodd" clip-rule="evenodd" d="M50.5459 11.5437C50.5459 8.30363 52.6959 5.20046 56.9002 5.20046C60.3879 5.20046 62.0124 7.66474 62.0124 10.9048H54.3203C54.2247 13.8255 55.7058 15.9703 58.7158 15.9703C60.0535 15.9703 60.7224 15.6509 61.5346 15.1032L61.869 15.514C61.0568 16.6092 59.2413 17.7044 56.9002 17.7044C53.2214 17.7501 50.5459 15.1945 50.5459 11.5437ZM54.368 10.0834L58.238 9.99213C58.238 8.3949 57.9991 6.02189 56.5658 6.02189C55.1803 6.02189 54.4636 8.258 54.368 10.0834Z" fill="black"/>
<path fill-rule="evenodd" clip-rule="evenodd" d="M71.9022 5.88495C70.8989 5.47424 69.6089 5.24606 68.08 5.24606C65.0223 5.24606 63.1112 6.98019 63.1112 9.03376C63.1112 11.0873 64.4968 11.9544 66.5034 12.5933C68.5578 13.3234 69.1311 13.8711 69.1311 14.7838C69.1311 15.7421 68.3667 16.6092 67.0767 16.6092C65.5001 16.6092 64.3534 15.7421 63.4457 13.3691L62.8723 13.506L62.9679 16.9742C63.9712 17.385 65.7868 17.7044 67.3634 17.7044C70.6122 17.7044 72.6666 16.1072 72.6666 13.6885C72.6666 12.0457 71.7589 11.0873 69.6089 10.3115C67.3156 9.44448 66.4556 8.89686 66.4556 7.84725C66.4556 6.79765 67.2201 6.11312 68.1756 6.11312C69.6567 6.11312 70.66 6.98019 71.4244 9.12503L71.9978 8.98812L71.9022 5.88495Z" fill="black"/>
<path fill-rule="evenodd" clip-rule="evenodd" d="M36.8816 5.56556C35.4961 4.78976 33.0117 5.15484 31.674 8.02984L31.7695 5.24611L26.2274 6.29572V6.75207L26.8007 6.84334C27.5651 6.93461 27.8996 7.29969 27.9473 8.34929C28.0907 10.266 28.0429 13.5517 27.9473 15.2402C27.8518 16.1985 27.5174 16.6548 26.8007 16.7461L26.2274 16.8374V17.4763H33.9195V16.8374L32.9162 16.7461C32.1039 16.6548 31.8173 16.1985 31.7695 15.2402C31.6262 13.7342 31.6262 10.7223 31.674 8.85127C32.1039 8.30365 33.9195 7.80167 35.5439 8.85127L36.8816 5.56556Z" fill="black"/>
</svg>
