<svg width="118" height="24" viewBox="0 0 118 24" fill="none" xmlns="http://www.w3.org/2000/svg">
<g clip-path="url(#clip0_21_38)">
<path fill-rule="evenodd" clip-rule="evenodd" d="M27.5153 6.85696V16.2798C27.5153 19.023 28.3213 20.3783 30.449 20.3783C32.9313 20.3783 33.9953 18.9905 33.9953 15.6025V6.85696H38.5562V23.546H34.2202L34.2107 21.0558C33.0689 23.0732 30.9651 23.9998 29.0305 23.9998C24.1748 23.9998 22.9544 21.2514 22.9544 17.119V6.85696H27.5153ZM109.342 6.36866C114.579 6.36866 117.945 9.83675 117.945 15.2007C117.945 20.5319 114.579 23.9998 109.342 23.9998C104.137 23.9998 100.771 20.5319 100.771 15.2007C100.771 9.83675 104.137 6.36866 109.342 6.36866ZM78.4314 6.26653C84.0443 6.26653 86.7549 11.0192 86.4363 16.1697H74.5401C74.6682 19.0755 76.0714 20.3991 78.5907 20.3991C80.4086 20.3991 81.8755 19.2691 82.163 18.2364H86.1495C84.8736 22.1574 82.163 23.8194 78.4314 23.8194C73.2326 23.8194 70.0113 20.2378 70.0113 15.0711C70.0113 10.0443 73.4243 6.26653 78.4314 6.26653ZM61.3752 6.31561C64.8966 6.31561 67.4286 7.96475 67.4286 12.2931V23.4585H62.8771V14.0032C62.8771 11.7768 62.6853 9.93726 60.097 9.93726C57.541 9.93726 57.0616 12.0673 57.0616 14.1647V23.4585H52.5102V13.9835C52.5141 12.0756 52.5808 9.93726 49.7619 9.93726C48.8669 9.93726 46.6945 10.5183 46.6945 13.7773V23.4585H42.1429V6.76944H46.4378L46.4344 9.13642C47.5987 7.37125 49.4106 6.31561 51.5513 6.31561C53.6321 6.31561 55.491 7.09173 56.3886 9.09636C57.3491 7.64156 59.0746 6.31561 61.3752 6.31561ZM98.8854 6.31561C99.2091 6.31561 99.597 6.37985 99.8875 6.47567V10.7119C99.4677 10.6154 98.7891 10.5508 98.2395 10.5508C94.8792 10.5508 93.7159 12.9712 93.7159 15.9477V23.4585H89.1277V6.77396H93.4897L93.4881 9.95982C94.3509 7.7917 96.656 6.31561 98.8854 6.31561ZM5.00585 0.360722L14.6541 15.9528L14.6514 0.360722H19.3678V23.4585H14.3296L4.71713 7.87922L4.71659 23.4585H0V0.360722H5.00585ZM109.342 9.80409C106.256 9.80409 105.323 12.5024 105.323 15.2007C105.323 17.8663 106.256 20.5648 109.342 20.5648C112.46 20.5648 113.393 17.8663 113.393 15.2007C113.393 12.5024 112.46 9.80409 109.342 9.80409ZM78.3036 9.6868C75.4336 9.6868 74.6043 11.9623 74.5401 13.2624H81.9076C81.493 10.9218 80.5042 9.68662 78.3038 9.68662L78.3036 9.6868ZM83.9656 0.0830078L79.0545 4.65384H75.8966L78.9585 0.0831883H83.9654L83.9656 0.0830078Z" fill="black"/>
</g>
<defs>
<clipPath id="clip0_21_38">
<rect width="118" height="24" fill="white"/>
</clipPath>
</defs>
</svg>
