<svg width="1440" height="112" viewBox="0 0 1440 112" fill="none" xmlns="http://www.w3.org/2000/svg">
<rect width="1440" height="112" fill="#FC7A1D"/>
<g clip-path="url(#clip0_1_933)">
<path fill-rule="evenodd" clip-rule="evenodd" d="M139.515 50.857V60.2798C139.515 63.023 140.321 64.3783 142.449 64.3783C144.931 64.3783 145.995 62.9905 145.995 59.6025V50.857H150.556V67.546H146.22L146.211 65.0558C145.069 67.0732 142.965 67.9998 141.031 67.9998C136.175 67.9998 134.954 65.2514 134.954 61.119V50.857H139.515ZM221.342 50.3687C226.579 50.3687 229.945 53.8368 229.945 59.2007C229.945 64.5319 226.579 67.9998 221.342 67.9998C216.137 67.9998 212.771 64.5319 212.771 59.2007C212.771 53.8368 216.137 50.3687 221.342 50.3687ZM190.431 50.2665C196.044 50.2665 198.755 55.0192 198.436 60.1697H186.54C186.668 63.0755 188.071 64.3991 190.591 64.3991C192.409 64.3991 193.876 63.2691 194.163 62.2364H198.15C196.874 66.1574 194.163 67.8194 190.431 67.8194C185.233 67.8194 182.011 64.2378 182.011 59.0711C182.011 54.0443 185.424 50.2665 190.431 50.2665ZM173.375 50.3156C176.897 50.3156 179.429 51.9648 179.429 56.2931V67.4585H174.877V58.0032C174.877 55.7768 174.685 53.9373 172.097 53.9373C169.541 53.9373 169.062 56.0673 169.062 58.1647V67.4585H164.51V57.9835C164.514 56.0756 164.581 53.9373 161.762 53.9373C160.867 53.9373 158.694 54.5183 158.694 57.7773V67.4585H154.143V50.7694H158.438L158.434 53.1364C159.599 51.3712 161.411 50.3156 163.551 50.3156C165.632 50.3156 167.491 51.0917 168.389 53.0964C169.349 51.6416 171.075 50.3156 173.375 50.3156ZM210.885 50.3156C211.209 50.3156 211.597 50.3799 211.888 50.4757V54.7119C211.468 54.6154 210.789 54.5508 210.239 54.5508C206.879 54.5508 205.716 56.9712 205.716 59.9477V67.4585H201.128V50.774H205.49L205.488 53.9598C206.351 51.7917 208.656 50.3156 210.885 50.3156ZM117.006 44.3607L126.654 59.9528L126.651 44.3607H131.368V67.4585H126.33L116.717 51.8792L116.717 67.4585H112V44.3607H117.006ZM221.342 53.8041C218.256 53.8041 217.323 56.5024 217.323 59.2007C217.323 61.8663 218.256 64.5648 221.342 64.5648C224.46 64.5648 225.393 61.8663 225.393 59.2007C225.393 56.5024 224.46 53.8041 221.342 53.8041ZM190.304 53.6868C187.434 53.6868 186.604 55.9623 186.54 57.2624H193.908C193.493 54.9218 192.504 53.6866 190.304 53.6866L190.304 53.6868ZM195.966 44.083L191.054 48.6538H187.897L190.959 44.0832H195.965L195.966 44.083Z" fill="black"/>
</g>
<g clip-path="url(#clip1_1_933)">
<path d="M363.898 40.2871H370.454C374.102 40.2871 376.008 42.0895 376.008 44.3021C376.008 45.831 375.106 46.8676 373.856 47.4173V47.4556C375.455 48.0054 376.357 49.217 376.357 50.765C376.357 52.9777 374.574 54.9168 370.723 54.9168H363.898V40.2871ZM370.251 46.0854C371.338 46.0854 371.827 45.5575 371.827 44.9695C371.827 44.3814 371.335 43.8344 370.251 43.8344H368.325V46.0854H370.251ZM370.311 51.3722C371.458 51.3722 372.01 50.8444 372.01 50.1579C372.01 49.4714 371.438 48.9435 370.331 48.9435H368.322V51.3722H370.311ZM377.298 48.9626V40.2871H381.765V48.9244C381.765 50.549 382.606 51.4105 384.04 51.4105C385.473 51.4105 386.374 50.549 386.374 48.9025V40.2844H390.861V48.9599C390.861 52.6413 388.28 55.2861 384.037 55.2861C379.793 55.2861 377.295 52.6413 377.295 48.9599L377.298 48.9626ZM402.235 40.9927V44.7534C401.271 44.1079 399.634 43.6567 398.301 43.6567C397.09 43.6567 396.478 44.0286 396.478 44.5182C396.478 45.0078 397.153 45.2621 398.363 45.6724C400.412 46.3589 403.199 47.2779 403.199 50.3931C403.199 53.1746 401.007 55.2314 397.156 55.2314C395.167 55.2314 393.345 54.6844 392.217 53.9596V50.0047C393.325 50.8662 395.004 51.5527 396.624 51.5527C397.997 51.5527 398.632 51.0632 398.632 50.5134C398.632 49.8078 397.588 49.496 396.338 49.0638C394.698 48.495 392.097 47.4775 392.097 44.6385C392.097 42.0731 394.209 39.978 397.977 39.978C399.637 39.978 401.133 40.3883 402.238 40.9955H402.235V40.9927ZM404.344 40.2871H408.81V54.9168H404.344V40.2871ZM424.691 54.9168H420.43L414.919 47.0618H414.899V54.9168H410.659V40.2871H414.919L420.43 48.0026H420.45V40.2871H424.691V54.9168ZM426.534 40.2871H437.106V44.0861H431V45.8474H436.491V49.2936H431V51.1151H437.106V54.9141H426.534V40.2844V40.2871ZM448.314 40.9927V44.7534C447.35 44.1079 445.713 43.6567 444.38 43.6567C443.172 43.6567 442.557 44.0286 442.557 44.5182C442.557 45.0078 443.232 45.2621 444.443 45.6724C446.492 46.3589 449.278 47.2779 449.278 50.3931C449.278 53.1746 447.087 55.2314 443.235 55.2314C441.247 55.2314 439.424 54.6844 438.297 53.9596V50.0047C439.404 50.8662 441.084 51.5527 442.703 51.5527C444.077 51.5527 444.712 51.0632 444.712 50.5134C444.712 49.8078 443.667 49.496 442.417 49.0638C440.777 48.495 438.176 47.4775 438.176 44.6385C438.176 42.0731 440.288 39.978 444.056 39.978C445.716 39.978 447.213 40.3883 448.317 40.9955L448.314 40.9927ZM460.137 40.9927V44.7534C459.173 44.1079 457.536 43.6567 456.203 43.6567C454.995 43.6567 454.38 44.0286 454.38 44.5182C454.38 45.0078 455.056 45.2621 456.266 45.6724C458.315 46.3589 461.102 47.2779 461.102 50.3931C461.102 53.1746 458.91 55.2314 455.058 55.2314C453.07 55.2314 451.247 54.6844 450.12 53.9596V50.0047C451.227 50.8662 452.907 51.5527 454.526 51.5527C455.9 51.5527 456.535 51.0632 456.535 50.5134C456.535 49.8078 455.49 49.496 454.24 49.0638C452.601 48.495 450 47.4775 450 44.6385C450 42.0731 452.111 39.978 455.88 39.978C457.539 39.978 459.036 40.3883 460.14 40.9955L460.137 40.9927ZM373.704 71.658H378.171V57.0283H373.704V71.658ZM394.051 57.0283H389.811V64.7438H389.791L384.28 57.0283H380.019V71.658H384.26V63.803H384.28L389.791 71.658H394.051V57.0283ZM401.242 56.7138C397.471 56.7138 395.362 58.8088 395.362 61.3743C395.362 64.2132 397.963 65.2334 399.602 65.7996C400.853 66.2317 401.897 66.5435 401.897 67.2491C401.897 67.7989 401.262 68.2885 399.889 68.2885C398.269 68.2885 396.589 67.602 395.482 66.7404V70.6953C396.609 71.4201 398.432 71.9671 400.421 71.9671C404.272 71.9671 406.464 69.9103 406.464 67.1288C406.464 64.0136 403.677 63.0946 401.628 62.4081C400.421 61.9979 399.743 61.7626 399.743 61.2512C399.743 60.7397 400.358 60.3897 401.565 60.3897C402.896 60.3897 404.535 60.8409 405.5 61.4864V57.7257C404.392 57.1185 402.899 56.7083 401.239 56.7083V56.7138H401.242ZM407.508 71.658H411.975V57.0283H407.508V71.658ZM418.284 67.7989H419.146C421.46 67.7989 422.957 66.5462 422.957 64.3527C422.957 62.1592 421.46 60.8874 419.146 60.8874H418.284V67.8016V67.7989ZM427.463 64.3527C427.463 68.7589 423.981 71.658 418.98 71.658H413.818V57.0283H418.98C423.978 57.0283 427.463 59.9466 427.463 64.3527ZM428.674 71.658H439.247V67.8591H433.14V66.0375H438.631V62.5914H433.14V60.83H439.247V57.031H428.674V71.6608V71.658ZM446.277 63.9425C447.404 63.9425 448.286 63.4338 448.286 62.4136C448.286 61.3934 447.404 60.8847 446.257 60.8847H445.315V63.9397H446.28L446.277 63.9425ZM453.591 71.658H448.326L445.416 67.1343H445.313V71.658H440.846V57.0283H446.297C450.128 57.0283 452.792 58.6529 452.792 62.1209C452.792 63.4912 452.157 65.4905 449.616 66.5079L453.591 71.658Z" fill="black"/>
</g>
<path d="M741.114 65.2785H748.879V65.2202L747.778 64.6074C746.499 63.878 746.499 63.382 746.499 61.1936V55.5332L754.026 63.2069C755.96 65.1326 757.329 65.7162 759.114 65.7162C760.126 65.7171 761.117 65.4336 761.97 64.8992V64.8408C760.423 64.6074 758.727 63.7613 757.031 62.069L748.939 54.1034L756.139 47.9761C757.158 47.1163 758.301 46.4084 759.531 45.8753L760.483 45.4085V45.3501H753.64V45.4085L754.235 45.9629C754.949 46.6048 755.068 47.0424 754.324 47.6844L746.469 54.4828V49.435C746.469 47.2467 746.469 46.7507 747.749 46.0212L748.849 45.4085V45.3501H741.114V45.4085L742.215 46.0212C743.494 46.7507 743.494 47.2467 743.494 49.435V61.1936C743.494 63.382 743.494 63.878 742.215 64.6074L741.084 65.2202L741.114 65.2785ZM719.484 45.4085L720.614 46.0212C721.864 46.7507 721.864 47.2467 721.864 49.435V62.7692C721.864 63.9947 721.686 64.2281 720.852 64.6658L719.781 65.2493V65.3077H730.79C731.536 65.2792 732.283 65.3183 733.021 65.4244L733.467 60.4058H733.408L732.456 61.6897C731.206 63.382 730.522 63.8196 727.904 63.8196C726.889 63.8419 725.874 63.7834 724.869 63.6446V49.435C724.869 47.2467 724.869 46.7507 726.119 46.0212L727.249 45.4085V45.3501H719.484V45.4085ZM693.302 55.008C693.302 50.0769 696.485 46.5172 701.335 46.5172C705.917 46.5172 709.309 50.4562 709.309 55.6207C709.309 60.5517 706.185 64.1114 701.335 64.1114C696.753 64.1114 693.302 60.2016 693.302 55.008ZM690.089 55.5915C690.089 61.1645 695.384 65.6286 701.335 65.6286C707.285 65.6286 712.581 60.9602 712.581 55.0371C712.581 49.4642 707.285 45 701.335 45C695.384 45 690.089 49.6684 690.089 55.5915ZM669.678 65.2785H678.039V65.2202L676.908 64.6366C675.153 63.7321 675.064 63.2069 675.064 61.1353V55.4164H678.366C679.764 55.4164 680.568 55.6207 680.955 56.2334L681.312 56.7586H681.371L681.817 52.2944H681.758L681.252 52.9072C680.717 53.6074 680.092 53.9576 678.664 53.9576H675.093V46.9549L678.247 46.809C680.211 46.7215 680.806 47.0424 681.52 48.4138L682.115 49.6393H682.204L682.65 45.2042C681.862 45.31 681.066 45.3588 680.27 45.3501H669.708V45.4085L670.839 46.0212C672.118 46.7507 672.118 47.2467 672.118 49.435V61.1936C672.118 63.382 672.118 63.878 670.839 64.6074L669.708 65.2202L669.678 65.2785ZM639.004 65.2785H646.055V65.2202L644.716 64.4615C643.556 63.7905 643.467 63.2361 643.467 61.6021V50.9231L658.462 65.5703H658.521V49.0265C658.521 47.3926 658.611 46.8966 659.771 46.1963L661.169 45.4085V45.3501H654.029V45.4085L655.427 46.1963C656.617 46.8966 656.706 47.3926 656.706 49.0265V59.7056L641.771 45.0584H641.711V61.6021C641.711 63.2361 641.622 63.7321 640.432 64.4324L639.033 65.2202L639.004 65.2785ZM622.491 65.2785H630.257V65.2202L629.126 64.6074C627.847 63.878 627.847 63.382 627.847 61.1936V49.435C627.847 47.2467 627.847 46.7507 629.126 46.0212L630.257 45.4085V45.3501H622.521V45.4085L623.652 46.0212C624.901 46.7507 624.901 47.2467 624.901 49.435V61.1936C624.901 63.382 624.901 63.878 623.652 64.6074L622.521 65.2202L622.491 65.2785ZM595 65.2785H602.765V65.2202L601.635 64.6074C600.385 63.878 600.385 63.382 600.385 61.1936V55.5332L607.913 63.2069C609.876 65.1326 611.215 65.7162 613 65.7162C614.013 65.7188 615.004 65.4351 615.856 64.8992V64.8408C614.309 64.6074 612.613 63.7613 610.888 62.069L602.855 54.1034L609.995 47.9761C610.977 47.1008 611.899 46.6048 613.446 45.8462L614.399 45.4085V45.3501H607.555V45.4085L608.151 45.9337C608.865 46.6048 608.984 47.0133 608.24 47.6844L600.355 54.4536V49.435C600.355 47.2467 600.355 46.7507 601.605 46.0212L602.736 45.4085V45.3501H595V45.4085L596.131 46.0212C597.38 46.7507 597.38 47.2467 597.38 49.435V61.1936C597.38 63.382 597.38 63.878 596.101 64.6074L595 65.2202V65.2785Z" fill="black"/>
<path d="M905.28 53.8814L904.914 57.0092H899.261V71.6247H896V40.3768H906.345L906.017 43.6132H899.261V53.8181H905.288L905.28 53.8814ZM995.331 43.6132H989.255V53.4081H993.506L993.5 53.4714L993.133 56.5992H989.255V57.3016V68.4336H994.042L994.036 68.4984L993.669 71.6247H989.255H985.993V40.3784H995.659L995.331 43.6132ZM922.169 72C919.24 72 917.489 69.9304 917.489 66.4634V62.1523H920.467V66.8388C920.467 68.105 920.988 68.9973 922.028 68.9973C923.162 68.9973 923.681 68.1999 923.681 66.8388C923.681 63.6959 922.782 61.0203 921.129 57.4086C919.664 54.2643 917.637 49.4331 917.637 46.1938C917.637 42.5761 919.102 40 922.457 40C925.057 40 926.709 41.9716 926.709 45.5381V50.1733H923.777V45.3029C923.777 43.895 923.305 43.2363 922.453 43.2363C921.508 43.2363 920.846 43.8483 920.846 45.1612C920.846 46.9791 921.791 50.8893 923.587 54.9682C925.338 58.8617 926.849 62.7101 926.849 65.9931C926.849 70.871 924.058 71.9985 922.169 71.9985V72ZM1025.32 72C1022.39 72 1020.64 69.9364 1020.64 66.4634V62.1523H1023.62V66.8388C1023.62 68.105 1024.14 68.9973 1025.18 68.9973C1026.32 68.9973 1026.84 68.1999 1026.84 66.8388C1026.84 63.6959 1025.94 61.0203 1024.28 57.4086C1022.82 54.2643 1020.79 49.4331 1020.79 46.1938C1020.79 42.5761 1022.26 40 1025.61 40C1028.21 40 1029.86 41.9716 1029.86 45.5381V50.1733H1026.93V45.3029C1026.93 43.895 1026.46 43.2378 1025.6 43.2378C1024.66 43.2378 1024 43.8483 1024 45.1627C1024 46.9806 1024.94 50.8908 1026.74 54.9697C1028.48 58.8617 1030 62.7101 1030 65.9946C1030 70.8725 1027.21 72 1025.32 72ZM935.924 71.6247V56.7982H933.23V71.6247H929.92V40.3768H933.23V53.4684H935.924V40.3768H939.184V71.6247H935.924ZM942.454 40.3768H945.761V71.6247H942.454V40.3768ZM953.475 72C950.922 72 948.796 69.8414 948.796 66.6518V45.3497C948.796 42.2053 950.922 40 953.475 40C956.027 40 958.154 42.2053 958.154 45.3497V66.6518C958.154 69.8414 956.028 72 953.475 72ZM954.841 44.9261C954.841 44.0835 954.322 43.4187 953.475 43.4187C952.577 43.4187 952.108 44.0759 952.108 44.9261V67.0739C952.108 67.9648 952.58 68.5813 953.475 68.5813C954.325 68.5813 954.841 67.9783 954.841 67.0739V44.9261ZM968.464 71.6247L964.823 55.8606L964.018 51.355V71.6247H961.138V40.3768H964.445L967.471 56.1409L968.178 60.6917V40.3768H971.062V71.6247H968.464ZM979.341 71.6247H974.027V40.3768H979.341C981.183 40.3768 983.499 41.3144 983.499 45.3029V51.0747C983.499 52.7644 982.932 53.9387 981.657 54.6396C982.932 55.3933 983.499 56.5615 983.499 58.206V66.6986C983.499 70.6856 981.183 71.6247 979.341 71.6247ZM980.286 45.2095C980.286 44.1287 979.859 43.7021 979.244 43.7021H977.339V53.1865H979.103C979.812 53.1865 980.286 52.6227 980.286 51.5435V45.2095ZM980.286 57.8292C980.286 56.7982 979.812 56.1877 979.103 56.1877H977.339V68.3401H979.244C979.852 68.3401 980.286 67.8728 980.286 66.792V57.8292ZM1002.52 71.6247L1002.19 65.6193H999.539L999.025 71.6247H996.095L999.262 40.3768H1002.81L1005.93 71.6247H1002.52ZM1001.05 48.1097L999.823 62.2428H1001.95L1001.05 48.1097ZM1015.41 71.6247L1011.77 55.8606L1010.97 51.355V71.6247H1008.08V40.3768H1011.39L1014.42 56.1409L1015.13 60.6917V40.3768H1018.01V71.6247H1015.41ZM912.368 71.6247L912.038 65.6193H909.39L908.871 71.6247H905.942L909.108 40.3768H912.653L915.774 71.6247H912.368ZM910.904 48.1097L909.676 62.2428H911.802L910.904 48.1097Z" fill="black"/>
<g clip-path="url(#clip2_1_933)">
<path d="M1168.52 46.4434V53.7768H1176.58V46.4434H1180.97V65.5601H1176.58V57.3134H1168.52V65.5601H1164.14V46.4434H1168.52ZM1190.14 58.1101V65.5601H1194.53V58.2268L1201.92 46.4434H1197.04L1192.41 54.0001L1187.75 46.4434H1182.84L1190.14 58.1101ZM1203.79 46.4434V65.5601H1208.17V58.7068H1212.78C1213.86 58.7329 1214.94 58.5552 1215.96 58.1834C1216.77 57.8794 1217.5 57.4082 1218.09 56.8034C1218.64 56.2409 1219.05 55.5693 1219.29 54.8368C1219.79 53.3615 1219.79 51.772 1219.29 50.2968C1219.05 49.566 1218.64 48.8958 1218.1 48.3334C1217.5 47.7304 1216.77 47.2595 1215.96 46.9534C1214.95 46.5829 1213.87 46.4062 1212.78 46.4334L1203.79 46.4434ZM1208.17 55.4434V49.7101H1211.58C1212.06 49.7077 1212.55 49.7434 1213.03 49.8168C1213.46 49.8777 1213.88 50.018 1214.26 50.2301C1214.62 50.443 1214.91 50.7446 1215.11 51.1034C1215.34 51.5605 1215.45 52.0656 1215.43 52.5734C1215.45 53.0824 1215.34 53.5886 1215.11 54.0468C1214.91 54.4047 1214.62 54.7052 1214.26 54.9168C1213.88 55.1295 1213.46 55.271 1213.03 55.3334C1212.55 55.4051 1212.07 55.4408 1211.58 55.4401L1208.17 55.4434ZM1221.54 46.4434V65.5601H1236.66V62.0268H1225.92V57.3334H1235.58V54.0668H1225.92V49.9768H1236.44V46.4434H1221.54ZM1238.54 46.4434V65.5601H1248.19C1249.07 65.5576 1249.95 65.4456 1250.8 65.2268C1251.61 65.0268 1252.38 64.6881 1253.06 64.2268C1253.72 63.7803 1254.26 63.1883 1254.64 62.5001C1255.04 61.7243 1255.24 60.8646 1255.22 59.9968C1255.25 58.9095 1254.94 57.8389 1254.31 56.9301C1253.64 56.0472 1252.67 55.423 1251.56 55.1701C1252.37 54.8264 1253.07 54.2808 1253.58 53.5901C1254.07 52.8753 1254.31 52.0351 1254.28 51.1834C1254.3 50.4099 1254.15 49.6408 1253.82 48.9334C1253.53 48.3447 1253.08 47.8407 1252.52 47.4734C1251.91 47.0869 1251.23 46.8185 1250.52 46.6834C1249.66 46.5166 1248.79 46.4362 1247.92 46.4434H1238.54ZM1242.91 54.1801V49.7101H1247.02C1247.4 49.7086 1247.77 49.7398 1248.15 49.8034C1248.49 49.8575 1248.81 49.9704 1249.11 50.1368C1249.39 50.2973 1249.62 50.5276 1249.78 50.8034C1249.96 51.1421 1250.05 51.5199 1250.03 51.9001C1250.03 52.7046 1249.78 53.2857 1249.28 53.6434C1248.71 54.0189 1248.04 54.2063 1247.35 54.1768L1242.91 54.1801ZM1242.91 62.2934V57.0434H1247.69C1248.5 57.0029 1249.31 57.222 1249.98 57.6668C1250.55 58.0868 1250.84 58.7868 1250.84 59.7668C1250.86 60.1919 1250.77 60.6148 1250.58 61.0001C1250.42 61.3094 1250.17 61.5731 1249.87 61.7668C1249.55 61.9608 1249.2 62.0965 1248.82 62.1668C1248.42 62.2465 1248.01 62.2867 1247.6 62.2868L1242.91 62.2934ZM1257.09 46.4434V65.5601H1272.22V62.0268H1261.48V57.3334H1271.14V54.0668H1261.48V49.9768H1272V46.4434H1257.09ZM1281.62 46.4434L1274.09 65.5601H1278.5L1280.05 61.3034H1287.5L1289.01 65.5601H1293.56L1286.12 46.4434H1281.62ZM1281.2 58.1701L1283.8 51.1701H1283.87L1286.38 58.1701H1281.2ZM1298.17 60.8601C1297.92 60.3506 1297.8 59.7902 1297.83 59.2268H1293.57C1293.53 60.2822 1293.76 61.3315 1294.24 62.2801C1294.69 63.1155 1295.33 63.8392 1296.12 64.3934C1296.95 64.9612 1297.88 65.375 1298.86 65.6134C1299.9 65.8735 1300.98 66.0034 1302.06 66.0001C1303.27 66.0198 1304.48 65.867 1305.64 65.5468C1306.58 65.2873 1307.47 64.8549 1308.24 64.2734C1308.92 63.7559 1309.46 63.0909 1309.81 62.3334C1310.17 61.5673 1310.35 60.7362 1310.35 59.8968C1310.39 58.9695 1310.14 58.0515 1309.63 57.2601C1309.19 56.6071 1308.62 56.0469 1307.94 55.6134C1307.34 55.2231 1306.68 54.9209 1305.98 54.7168C1305.31 54.5301 1304.8 54.4001 1304.43 54.3268C1303.18 54.0268 1302.17 53.7734 1301.4 53.5801C1300.78 53.4373 1300.17 53.2432 1299.59 53.0001C1299.23 52.8634 1298.93 52.6321 1298.71 52.3334C1298.55 52.0551 1298.47 51.7405 1298.48 51.4234C1298.47 51.0707 1298.57 50.7227 1298.76 50.4234C1298.95 50.1573 1299.18 49.9303 1299.46 49.7568C1299.75 49.5749 1300.08 49.4471 1300.43 49.3801C1300.77 49.311 1301.12 49.2753 1301.47 49.2734C1301.97 49.2709 1302.47 49.3156 1302.96 49.4068C1303.39 49.4876 1303.8 49.6411 1304.18 49.8601C1304.55 50.0746 1304.86 50.3779 1305.07 50.7401C1305.3 51.1801 1305.43 51.6637 1305.45 52.1568H1309.69C1309.71 51.1767 1309.48 50.2061 1309.02 49.3334C1308.59 48.57 1307.99 47.9142 1307.25 47.4201C1306.47 46.907 1305.61 46.5384 1304.69 46.3334C1303.71 46.1079 1302.7 45.996 1301.69 46.0001C1300.79 45.9979 1299.89 46.1099 1299.02 46.3334C1298.15 46.5518 1297.34 46.9153 1296.61 47.4068C1295.91 47.882 1295.33 48.4986 1294.9 49.2134C1294.44 49.9941 1294.22 50.8769 1294.24 51.7701C1294.22 52.5449 1294.39 53.3131 1294.76 54.0068C1295.09 54.6066 1295.55 55.1316 1296.11 55.5468C1296.69 55.9662 1297.33 56.303 1298.01 56.5468C1298.72 56.8105 1299.45 57.0331 1300.19 57.2134C1300.91 57.4112 1301.63 57.589 1302.33 57.7468C1302.98 57.8988 1303.62 58.0948 1304.23 58.3334C1304.74 58.5131 1305.19 58.7861 1305.59 59.1368C1305.76 59.2975 1305.89 59.4906 1305.98 59.704C1306.07 59.9175 1306.12 60.1465 1306.11 60.3768C1306.13 60.8062 1305.99 61.228 1305.72 61.5701C1305.45 61.8866 1305.11 62.1388 1304.72 62.3068C1304.33 62.4861 1303.91 62.6075 1303.48 62.6668C1303.06 62.7273 1302.65 62.7585 1302.23 62.7601C1301.66 62.7635 1301.1 62.6962 1300.55 62.5601C1300.04 62.4427 1299.57 62.2346 1299.14 61.9468C1298.73 61.6624 1298.4 61.2901 1298.18 60.8601M1317.51 49.9768V65.5601H1321.89V49.9768H1327.86V46.4434H1311.53V49.9768H1317.51Z" fill="black"/>
</g>
<defs>
<clipPath id="clip0_1_933">
<rect width="118" height="24" fill="white" transform="translate(112 44)"/>
</clipPath>
<clipPath id="clip1_1_933">
<rect width="97" height="32" fill="white" transform="translate(364 40)"/>
</clipPath>
<clipPath id="clip2_1_933">
<rect width="164" height="20" fill="white" transform="translate(1164 46)"/>
</clipPath>
</defs>
</svg>
